<svg xmlns="http://www.w3.org/2000/svg" width="448" height="23.667">
  <g fill="#252525">
    <path d="M251.016 6.879c.071-.142.144-.142.215-.014l4.317 9.808c.056.115.042.186-.087.186h-.928c-.129 0-.172-.013-.216-.128l-.986-2.302h-4.403l-.986 2.302c-.057.115-.085.128-.228.128h-.973c-.086 0-.101-.07-.043-.197l4.318-9.783zm-1.603 6.42h3.433l-1.645-3.874c-.058-.114-.086-.114-.128-.014l-1.66 3.888zM259.595 16.859c-.201 0-.244-.028-.244-.228V6.996c0-.088.015-.145.102-.145h.929c.156 0 .185.057.185.202v8.563c0 .07.017.07.073.07h3.287c.129 0 .158.043.158.172v.829c0 .129-.029.171-.158.171h-4.332zM270.218 16.859c-.114 0-.144-.013-.144-.156V8.11c0-.114 0-.144-.113-.144h-3.146c-.112 0-.142-.013-.142-.114v-.87c0-.103.029-.13.128-.13h7.806c.1 0 .143.014.143.115v.886c0 .101-.043.114-.143.114h-3.159c-.1 0-.114.03-.114.116v8.591c0 .129-.014.186-.113.186h-1.003zM282.771 6.667c2.859 0 5.205 2.316 5.205 5.174 0 2.861-2.346 5.163-5.205 5.163-2.888 0-5.218-2.302-5.218-5.163.001-2.858 2.331-5.174 5.218-5.174zm0 9.206c2.216 0 4.002-1.801 4.002-4.032 0-2.23-1.786-4.046-4.002-4.046a4.04 4.04 0 0 0-4.032 4.046 4.028 4.028 0 0 0 4.032 4.032zM296.841 15.873c1.014 0 1.901-.171 2.487-.5V12.17c0-.129-.029-.186-.143-.186h-2.731c-.1 0-.143-.043-.143-.157v-.801c0-.101.086-.157.172-.157h3.817c.199 0 .229.043.229.187v4.831c0 .188-.014.23-.201.331-.9.456-2.258.786-3.559.786-2.873-.014-5.162-2.131-5.162-5.163 0-3.031 2.347-5.174 5.275-5.174 1.217 0 2.33.3 3.304.815.114.055.156.099.156.212v.858c0 .1-.071.157-.229.043-.799-.486-1.943-.801-3.23-.801-2.4 0-4.047 1.815-4.047 4.046 0 2.232 1.789 4.033 4.005 4.033zM305.719 6.967c0-.101.045-.115.13-.115h4.933c.143 0 .187.028.187.13v.842c0 .115-.014.142-.158.142h-3.86c-.014 0-.028 0-.028.03v3.103c0 .029 0 .042.041.042h3.877c.085 0 .129.058.129.172v.715c0 .185-.044.227-.144.227h-3.847c-.042 0-.057.016-.057.058v3.39c0 .028.015.043.041.043h3.891c.115 0 .115.071.115.214v.715c0 .115-.058.186-.187.186h-4.903c-.114 0-.159-.013-.159-.143V6.967zM318.46 16.859c-.115 0-.144-.013-.144-.156V8.11c0-.114 0-.144-.114-.144h-3.145c-.116 0-.144-.013-.144-.114v-.87c0-.103.027-.13.129-.13h7.805c.102 0 .144.014.144.115v.886c0 .101-.042.114-.144.114h-3.158c-.102 0-.115.03-.115.116v8.591c0 .129-.014.186-.113.186h-1.001zM327.338 16.859c-.114 0-.158-.028-.158-.128V7.009c0-.13.044-.158.146-.158h.943c.085 0 .129.042.129.13v4.117c0 .042 0 .057.026.057h4.476c.044 0 .057-.028.057-.072V6.982c0-.088.059-.13.159-.13h.886c.128 0 .171.087.171.187v9.678c0 .086-.043.143-.129.143h-.886c-.157 0-.201-.042-.201-.186v-4.303c0-.059-.026-.086-.084-.086h-4.435c-.026 0-.04.015-.04.042v4.377c0 .114-.044.156-.144.156h-.916zM339.062 6.967c0-.101.044-.115.129-.115h4.933c.143 0 .186.028.186.13v.842c0 .115-.014.142-.157.142h-3.861c-.014 0-.026 0-.026.03v3.103c0 .029 0 .042.042.042h3.874c.086 0 .129.058.129.172v.715c0 .185-.043.227-.144.227h-3.844c-.045 0-.058.016-.058.058v3.39c0 .028.013.043.042.043h3.889c.114 0 .114.071.114.214v.715c0 .115-.057.186-.186.186h-4.903c-.114 0-.158-.013-.158-.143V6.967zM351.215 6.852c2.772 0 3.632 1.072 3.632 2.788 0 1.33-.486 2.36-1.829 2.789l3.46 4.245c.055.072.07.186-.086.186h-1.131c-.114 0-.157-.042-.229-.128l-3.344-4.089h-1.346c-.142 0-.156.041-.156.158v3.888c0 .101-.014.171-.129.171h-.93c-.114 0-.143-.042-.143-.171V7.024c0-.145.059-.172.172-.172h2.059zm-1.028 4.517c0 .144.015.173.144.173h.93c1.586 0 2.33-.544 2.33-1.801 0-1.287-.773-1.774-2.345-1.774h-.902c-.142 0-.156.014-.156.157v3.245zM369.73 17.003c-.899 0-1.772-.201-2.301-.471-.129-.074-.143-.115-.143-.23v-.914c0-.087.07-.102.157-.058.559.386 1.344.6 2.045.6 1.443 0 2.157-.6 2.157-1.773 0-1.443-1.201-1.887-2.286-2.373-1.072-.486-1.974-1.129-1.974-2.717 0-1.443.944-2.359 2.701-2.359.875 0 1.603.2 2.06.458.088.057.114.114.114.2v.886c0 .074-.085.101-.142.058-.486-.344-1.06-.559-1.815-.559-1.188 0-1.702.545-1.702 1.386 0 1.046.828 1.403 1.802 1.86 1.129.53 2.415 1.173 2.415 3.131.001 2.016-1.271 2.875-3.088 2.875zM385.646 16.859c-.115 0-.145-.028-.145-.186V9.668c0-.101-.071-.086-.128-.016l-3.358 3.962c-.146.155-.229.155-.343.028l-3.376-3.975c-.086-.086-.157-.058-.157.1v6.934c0 .128-.015.156-.114.156h-.885c-.144 0-.175-.042-.175-.171V6.894c0-.128.116-.114.16-.071L381.699 12c.113.142.156.142.258.042l4.517-5.148c.114-.128.2-.071.2.059v9.764c0 .101-.014.143-.114.143h-.914zM394.566 6.879c.072-.142.143-.142.215-.014l4.317 9.808c.058.115.044.186-.084.186h-.931c-.129 0-.171-.013-.215-.128l-.986-2.302h-4.403l-.987 2.302c-.056.115-.085.128-.227.128h-.974c-.087 0-.1-.07-.042-.197l4.317-9.783zm-1.6 6.42h3.431l-1.643-3.874c-.059-.114-.087-.114-.131-.014l-1.657 3.888zM405.419 6.852c2.774 0 3.633 1.072 3.633 2.788 0 1.33-.486 2.36-1.831 2.789l3.461 4.245c.056.072.07.186-.086.186h-1.131c-.114 0-.158-.042-.229-.128l-3.345-4.089h-1.345c-.143 0-.156.041-.156.158v3.888c0 .101-.015.171-.13.171h-.93c-.112 0-.143-.042-.143-.171V7.024c0-.145.059-.172.173-.172h2.059zm-1.028 4.517c0 .144.014.173.143.173h.93c1.586 0 2.33-.544 2.33-1.801 0-1.287-.773-1.774-2.345-1.774h-.901c-.143 0-.156.014-.156.157v3.245zM416.644 16.859c-.114 0-.143-.013-.143-.156V8.11c0-.114 0-.144-.115-.144h-3.145c-.116 0-.143-.013-.143-.114v-.87c0-.103.026-.13.128-.13h7.806c.101 0 .144.014.144.115v.886c0 .101-.043.114-.144.114h-3.159c-.101 0-.115.03-.115.116v8.591c0 .129-.014.186-.114.186h-1zM425.107 6.967c0-.101.043-.115.13-.115h4.932c.144 0 .187.028.187.13v.842c0 .115-.015.142-.157.142h-3.859c-.015 0-.03 0-.03.03v3.103c0 .029 0 .042.044.042h3.873c.087 0 .13.058.13.172v.715c0 .185-.043.227-.143.227h-3.847c-.042 0-.058.016-.058.058v3.39c0 .028.016.043.044.043h3.888c.115 0 .115.071.115.214v.715c0 .115-.057.186-.187.186h-4.904c-.114 0-.157-.013-.157-.143V6.967zM436.976 6.852c2.773 0 3.632 1.072 3.632 2.788 0 1.33-.487 2.36-1.83 2.789l3.459 4.245c.057.072.072.186-.086.186h-1.13c-.113 0-.157-.042-.228-.128l-3.346-4.089h-1.344c-.143 0-.157.041-.157.158v3.888c0 .101-.015.171-.13.171h-.929c-.114 0-.142-.042-.142-.171V7.024c0-.145.058-.172.17-.172h2.061zm-1.03 4.517c0 .144.015.173.143.173h.93c1.586 0 2.33-.544 2.33-1.801 0-1.287-.772-1.774-2.344-1.774h-.901c-.143 0-.157.014-.157.157v3.245zM230.953 1.954l.621.279-8.763 19.5-.621-.28z"/>
    <path d="M11.069 19.859c-2.106 0-3.411-.596-3.891-.87-.436-.504-.733-2.152-.733-3.708.162-.299.688-.321.87-.068.458 1.488 1.992 3.594 3.939 3.594 1.693 0 2.472-1.168 2.472-2.312 0-1.854-1.74-2.953-3.114-3.641-1.648-.824-3.457-2.198-3.457-4.464-.022-2.586 1.993-4.373 5.312-4.373.755 0 1.694.093 2.609.366.298.092.503.137.779.184.182.503.412 1.74.412 3.273-.115.276-.688.298-.893.069-.389-1.168-1.375-2.839-3.022-2.839-1.51 0-2.334.984-2.334 2.129 0 1.052.938 2.015 2.083 2.61l1.511.802c1.42.755 3.228 2.083 3.228 4.602-.002 2.814-2.314 4.646-5.771 4.646zM37.032 4.612c0 .412.068 2.244.274 3.571-.092.274-.709.366-.871.161-.618-2.129-2.083-3.274-4.304-3.274-2.541 0-5.265 2.175-5.265 6.73 0 4.556 2.633 7.006 5.379 7.006 2.771 0 4.053-1.992 4.67-3.549.183-.184.733-.115.87.161-.161 1.693-.55 3.066-.87 3.593-1.236.344-2.862.848-4.648.848-2.243 0-4.532-.527-6.157-1.74-1.649-1.26-2.907-3.159-2.907-5.998 0-2.793 1.189-4.762 2.769-6.067 1.625-1.351 3.961-2.038 6.341-2.038 2.337 0 4.031.55 4.719.596zM60.063 11.869c0 4.99-3.342 7.99-8.265 7.99-4.602 0-7.943-3.022-7.943-7.807 0-4.533 3.388-8.036 8.171-8.036 4.764 0 8.037 3.205 8.037 7.853zm-8.218-6.8c-2.816 0-4.327 2.633-4.327 6.456 0 2.792.985 7.281 4.715 7.281 3 0 4.167-2.932 4.167-6.64 0-3.915-1.717-7.097-4.555-7.097zM71.396 6.1c0-.55 0-.664-.549-.664h-1.42c-1.671 0-2.152.915-2.838 2.586-.274.138-.709.093-.847-.206.48-1.579.595-2.999.754-3.892.092-.069.206-.115.321-.115s.229.023.321.092c.114.389.182.48 1.923.48h8.516c1.511 0 1.854-.022 2.06-.503.092-.046.161-.069.298-.069s.297.092.343.161c-.228.78-.388 2.633-.342 3.939-.115.207-.733.251-.847.068-.389-1.465-.71-2.541-2.427-2.541h-1.375c-.548 0-.617.068-.617.664v10.095c0 2.129.136 2.312 1.167 2.45l.915.115c.161.137.161.663 0 .8a121.475 121.475 0 0 0-3.663-.068c-1.099 0-2.289.023-3.893.068-.182-.137-.182-.663 0-.8l1.031-.115c1.03-.114 1.168-.321 1.168-2.45V6.1zM91.613 6.1c0-.55 0-.664-.55-.664h-1.419c-1.671 0-2.152.915-2.838 2.586-.274.138-.709.093-.847-.206.48-1.579.596-2.999.755-3.892.092-.069.207-.115.321-.115s.229.023.321.092c.114.389.182.48 1.922.48h8.517c1.511 0 1.854-.022 2.061-.503a.57.57 0 0 1 .298-.069c.137 0 .297.092.343.161-.229.779-.39 2.632-.343 3.938-.115.207-.733.251-.847.068-.39-1.465-.71-2.541-2.427-2.541h-1.374c-.549 0-.617.068-.617.664v10.095c0 2.129.136 2.312 1.167 2.45l.916.115c.161.137.161.663 0 .8a121.472 121.472 0 0 0-3.662-.068c-1.099 0-2.29.023-3.893.068-.182-.137-.182-.663 0-.8l1.03-.115c1.03-.114 1.168-.321 1.168-2.45V6.1z"/>
    <path d="M114.085 7.816c0-2.403-.045-2.77-1.488-2.885l-.573-.045c-.136-.091-.091-.504.046-.573 1.282.047 2.061.069 2.977.069.893 0 1.671-.022 2.815-.069.138.069.184.481.046.573l-.549.045c-1.351.115-1.397.481-1.397 2.885v7.967c0 1.442.068 2.037.48 2.472.252.252.688.527 2.496.527 1.946 0 2.427-.092 2.793-.298.458-.274 1.053-1.099 1.511-2.267.137-.114.571-.023.571.138 0 .251-.641 2.587-.96 3.204-1.168-.045-3.343-.068-5.7-.068h-2.106c-.961 0-1.695.023-2.977.068-.137-.068-.182-.435-.046-.571l.687-.069c1.329-.137 1.375-.457 1.375-2.86V7.816zM128.966 12.098c0-4.579 3.434-8.082 8.151-8.082 5.288 0 7.944 3.823 7.944 7.853 0 4.625-3.525 7.99-7.944 7.99-5.082 0-8.151-3.641-8.151-7.761zm13.806.481c0-3.777-1.671-7.853-6.044-7.853-2.38 0-5.471 1.625-5.471 6.64 0 3.388 1.648 7.784 6.158 7.784 2.747-.001 5.357-2.061 5.357-6.571zM164.59 17.158c0 .914.138 1.465.55 1.625a.189.189 0 0 1-.023.274c-.275 0-.687.092-1.122.206-1.213.32-2.863.596-4.098.596-2.725 0-5.22-.756-6.982-2.541-1.373-1.374-2.106-3.184-2.106-5.197 0-1.947.641-3.916 2.06-5.426 1.534-1.603 3.8-2.679 7.258-2.679 1.305 0 2.519.251 2.906.344.436.091 1.146.251 1.42.206 0 .755.138 1.945.344 3.319-.069.182-.481.206-.619.068-.641-2.473-2.358-3.251-4.694-3.251-4.44 0-6.387 3.159-6.387 6.594 0 4.396 2.267 7.853 6.868 7.853 1.42 0 2.267-.298 2.519-.687.115-.16.229-.573.229-1.305v-.916c0-1.924-.068-2.061-1.488-2.221l-1.007-.115c-.184-.091-.161-.503 0-.57.663.045 1.923.067 3.274.067.893 0 1.671-.022 2.426-.067.161.09.183.434.023.57l-.365.047c-.962.113-.985.754-.985 1.922v1.284zM174.344 7.862c0-2.426-.045-2.815-1.397-2.93l-.572-.045c-.138-.091-.091-.504.046-.573 1.145.047 1.923.069 2.885.069.916 0 1.694-.022 2.838-.069.138.069.183.481.045.573l-.571.045c-1.352.115-1.397.504-1.397 2.93v8.15c0 2.427.045 2.748 1.397 2.907l.571.069c.138.092.093.503-.045.571a67.76 67.76 0 0 0-2.838-.068c-.962 0-1.74.023-2.885.068-.137-.068-.184-.435-.046-.571l.572-.069c1.352-.159 1.397-.48 1.397-2.907v-8.15zM186.913 5.962c1.671-1.305 3.8-1.946 6.181-1.946 1.236 0 2.976.251 4.052.55.275.068.436.114.642.091.023.527.137 1.97.32 3.365-.114.161-.458.183-.619.045-.343-1.556-1.373-3.342-4.693-3.342-3.503 0-6.479 2.222-6.479 6.96 0 4.808 3.044 7.463 6.799 7.463 2.953 0 4.259-1.923 4.785-3.274.161-.114.503-.068.596.092-.161 1.191-.756 2.702-1.099 3.137-.275.046-.55.137-.801.229-.504.184-2.151.527-3.617.527-2.06 0-4.029-.412-5.701-1.535-1.831-1.258-3.25-3.342-3.25-6.295-.001-2.542 1.144-4.716 2.884-6.067z"/>
  </g>
</svg>
